<?xml version="1.0" standalone="no"?>
<!DOCTYPE svg PUBLIC "-//W3C//DTD SVG 20010904//EN"
 "http://www.w3.org/TR/2001/REC-SVG-20010904/DTD/svg10.dtd">
<svg version="1.0" xmlns="http://www.w3.org/2000/svg"
 width="200.000000pt" height="200.000000pt" viewBox="0 0 200.000000 200.000000"
 preserveAspectRatio="xMidYMid meet">

<g transform="translate(0.000000,200.000000) scale(0.100000,-0.100000)"
fill="#000000" stroke="none">
<path d="M640 1036 l0 -524 -52 21 c-42 16 -76 21 -158 21 -117 1 -188 -17
-241 -61 -32 -28 -69 -91 -69 -120 0 -69 143 -133 295 -133 116 0 245 43 279
92 14 20 16 86 16 545 l0 523 465 0 465 0 0 -394 0 -394 -52 21 c-43 17 -75
21 -163 21 -144 1 -208 -23 -272 -102 -64 -78 -55 -121 36 -166 118 -60 314
-60 433 0 88 45 83 6 86 626 l3 548 -536 0 -535 0 0 -524z m495 464 c20 -38
19 -43 -5 -28 -16 10 -24 10 -41 0 -12 -8 -19 -10 -17 -5 35 73 40 77 63 33z
m100 0 c20 -38 19 -43 -5 -28 -16 10 -24 10 -41 0 -12 -8 -19 -10 -17 -5 35
73 40 77 63 33z"/>
<path d="M1105 1500 c-3 -5 -1 -10 4 -10 6 0 11 5 11 10 0 6 -2 10 -4 10 -3 0
-8 -4 -11 -10z"/>
<path d="M1205 1500 c-3 -5 -1 -10 4 -10 6 0 11 5 11 10 0 6 -2 10 -4 10 -3 0
-8 -4 -11 -10z"/>
</g>
</svg>
